# AST/ASF file generated using VICON BodyLanguage
# -----------------------------------------------
:version 1.10
:name VICON
:units
  mass 1.0
  length 0.45
  angle deg
:documentation
   .ast/.asf automatically generated from VICON data using
   VICON BodyBuilder and BodyLanguage model FoxedUp or BRILLIANT.MOD
:root
   order TX TY TZ RX RY RZ
   axis XYZ
   position 0 0 0  
   orientation 0 0 0 
:bonedata
  begin
     id 1 
     name lhipjoint
     direction 0.440178 -0.822639 0.359871 
     length 2.53113 
     axis 0 0 0  XYZ
  end
  begin
     id 2 
     name lfemur
     direction 0.34202 -0.939693 0  
     length 7.88132  
     axis 0 0 20  XYZ
    dof rx ry rz
    limits (-160.0 20.0)
           (-70.0 70.0)
           (-60.0 70.0)
  end
  begin
     id 3 
     name ltibia
     direction 0.34202 -0.939693 0   
     length 8.43783   
     axis 0 0 20   XYZ
    dof rx
    limits (-10.0 170.0)
  end
  begin
     id 4 
     name lfoot
     direction 0.0886351 -0.243523 0.965837   
     length 2.63414   
     axis -90 7.62852e-016 20   XYZ
    dof rx rz
    limits (-45.0 90.0)
           (-70.0 20.0)
  end
  begin
     id 5 
     name ltoes
     direction 1.53703e-011 -4.21717e-011 1   
     length 1.31427   
     axis -90 7.62852e-016 20   XYZ
    dof rx
    limits (-90.0 20.0)
  end
  begin
     id 6 
     name rhipjoint
     direction -0.399779 -0.839773 0.367367   
     length 2.47948  
     axis 0 0 0  XYZ 
  end
  begin
     id 7 
     name rfemur
     direction -0.34202 -0.939693 0   
     length 7.74806   
     axis 0 0 -20   XYZ
    dof rx ry rz
    limits (-160.0 20.0)
           (-70.0 70.0)
           (-70.0 60.0)
  end
  begin
     id 8 
     name rtibia
     direction -0.34202 -0.939693 0   
     length 8.74432   
     axis 0 0 -20   XYZ
    dof rx
    limits (-10.0 170.0)
 end
 begin
     id 9 
     name rfoot
     direction -0.108514 -0.298139 0.948334   
     length 2.66102  
     axis -90 -7.62852e-016 -20   XYZ
    dof rx rz
    limits (-45.0 90.0)
           (-20.0 70.0)
  end
  begin
     id 10 
     name rtoes
     direction -1.53392e-011 -4.22077e-011 1   
     length 1.31983   
     axis -90 -7.62852e-016 -20   XYZ
    dof rx
    limits (-90.0 20.0)
  end
  begin
     id 11 
     name lowerback
     direction 0.0113257 0.999866 0.0118602   
     length 2.58694   
     axis 0 0 0   XYZ
    dof rx ry rz
    limits (-20.0 45.0)
           (-30.0 30.0)
           (-30.0 30.0)
  end
  begin
     id 12 
     name upperback
     direction -0.0164747 0.995193 -0.0965375   
     length 2.52368   
     axis 0 0 0   XYZ
    dof rx ry rz
    limits (-20.0 45.0)
           (-30.0 30.0)
           (-30.0 30.0)
  end
  begin
     id 13 
     name thorax
     direction -0.0194301 0.99433 -0.104552   
     length 2.56099   
     axis 0 0 0   XYZ
    dof rx ry rz
    limits (-20.0 45.0)
           (-30.0 30.0)
           (-30.0 30.0)
  end
  begin
     id 14 
     name lowerneck
     direction 0.0148543 0.995587 -0.092657   
     length 1.71582   
     axis 0 0 0   XYZ
    dof rx ry rz
    limits (-20.0 45.0)
           (-30.0 30.0)
           (-30.0 30.0)
  end
  begin
     id 15 
     name upperneck
     direction -0.0135467 0.993656 -0.111639   
     length 1.68937   
     axis 0 0 0   XYZ
    dof rx ry rz
    limits (-20.0 45.0)
           (-30.0 30.0)
           (-30.0 30.0)
  end
  begin
     id 16
     name head
     direction -0.00615349 0.999547 -0.029448  
     length 1.7462  
     axis 0 0 0   XYZ
    dof rx ry rz
    limits (-20.0 45.0)
           (-30.0 30.0)
           (-30.0 30.0)
  end
  begin
     id 17 
     name lclavicle
     direction 0.988267 0.149885 0.0293713  
     length 4.47222  
     axis 0 0 0   XYZ
    dof ry rz
    limits (-20.0 10.0)
           (0.0 20.0)
  end
  begin
     id 18 
     name lhumerus
     direction 1 -4.48986e-011 -1.14833e-027   
     length 5.37148   
     axis 180 -30 -90   XYZ
    dof rx ry rz
    limits (-60.0 90.0)
           (-90.0 90.0)
           (-90.0 90.0)
  end
  begin
     id 19
     name lradius
     direction 0.999998 0.00170963 -0.000987055   
     length 3.94212   
     axis 180 -30 -90   XYZ
    dof rx
    limits (-10.0 170.0)
  end
  begin
     id 20
     name lwrist
     direction 0.999998 7.53149e-005 -0.00194706   
     length 1.97106   
     axis 4.65056e-015 90 90   XYZ
    dof ry
    limits (-180.0 0.0)
 end
  begin
     id 21 
     name lhand
     direction 1 -4.48973e-011 -1.31746e-026   
     length 1.17917   
     axis 8.4065e-015 90 90   XYZ
    dof rx rz
    limits (-90.0 90.0)
           (-45.0 45.0)
  end
  begin
     id 22 
     name lfingers
     direction 1 -4.49107e-011 -2.63492e-026   
     length 0.950679   
     axis 1.6813e-014 90 90   XYZ
    dof rx
    limits (0.0 90.0)
  end
  begin
     id 23
     name lthumb
     direction 0.707107 -6.35048e-011 0.707107   
     length 1.36499   
     axis -90 45 2.85299e-015   XYZ
    dof rx rz
    limits (-45.0 45.0)
           (-45.0 45.0)
  end
  begin
     id 24 
     name rclavicle
     direction -0.996699 0.0642895 -0.0495725   
     length 4.62611  
     axis 0 0 0   XYZ 
    dof ry rz
    limits (-10.0 20.0)
           (-20.0 0.0)
  end
  begin
     id 25 
     name rhumerus
     direction -1 -4.48919e-011 -2.41059e-027  
     length 5.4981   
     axis 180 30 90   XYZ
    dof rx ry rz
    limits (-90.0 60.0)
           (-90.0 90.0)
           (-90.0 90.0)
  end
  begin
     id 26 
     name rradius
     direction -0.999999 0.00118101 -0.000681858   
     length 3.48381   
     axis 180 30 90   XYZ
    dof rx
    limits (-10.0 170.0)
  end
  begin
     id 27 
     name rwrist
     direction -0.999999 0.000321823 -0.00132288   
     length 1.7419   
     axis 4.65056e-015 -90 -90   XYZ
    dof ry
    limits (-180.0 0.0)
  end
  begin
     id 28
     name rhand
     direction -1 -4.49022e-011 -1.31746e-026   
     length 1.34932   
     axis 8.4065e-015 -90 -90   XYZ
    dof rx rz
    limits (-90.0 90.0)
           (-45.0 45.0)
  end
  begin
     id 29
     name rfingers
     direction -1 -4.49178e-011 -2.63492e-026   
     length 1.08785   
     axis 1.6813e-014 -90 -90   XYZ
    dof rx
    limits (0.0 90.0)
  end
  begin
     id 30
     name rthumb
     direction -0.707107 -6.34713e-011 0.707107   
     length 1.56195   
     axis -90 -45 -2.85299e-015   XYZ
    dof rx rz
    limits (-45.0 45.0)
           (-45.0 45.0)
  end
:hierarchy
  begin
    root lhipjoint rhipjoint lowerback
    lhipjoint lfemur
    lfemur ltibia
    ltibia lfoot
    lfoot ltoes
    rhipjoint rfemur
    rfemur rtibia
    rtibia rfoot
    rfoot rtoes
    lowerback upperback
    upperback thorax
    thorax lowerneck lclavicle rclavicle
    lowerneck upperneck
    upperneck head
    lclavicle lhumerus
    lhumerus lradius
    lradius lwrist
    lwrist lhand lthumb
    lhand lfingers
    rclavicle rhumerus
    rhumerus rradius
    rradius rwrist
    rwrist rhand rthumb
    rhand rfingers
  end

#!OML:ASF X:\für Bonn\!DataBase\2005_08_10_Bjorn_Final\c3d\bjorn.ASF
:FULLY-SPECIFIED
:DEGREES
16
root 19.6274 19.2982 0.119054 1067.58 -79.5902 -349.506
lowerback 4.56153 2.98322 9.97239
upperback 12.8344 3.16163 0.4448
thorax 12.0466 2.3339 -4.89562
lowerneck 1.58215 -2.79662 5.64769
upperneck 24.8386 -3.53333 -6.87645
head 7.06967 -1.98322 -3.4392
rclavicle 8.38871e-014 -9.54166e-015
rhumerus -15.9492 -10.8543 -82.2493
rradius 33.1613
rwrist -3.96197
rhand -16.3184 11.9428
rfingers 7.12502
rthumb 9.89301 -17.8048
lclavicle 8.38871e-014 -9.54166e-015
lhumerus -29.5602 2.90427 85.6284
lradius 26.8512
lwrist -28.4155
lhand -12.049 -7.41199
lfingers 7.12502
lthumb 14.0098 22.0959
rfemur -14.9094 -14.7339 14.9001
rtibia 31.7778
rfoot -7.40014 15.3024
rtoes -4.74831
lfemur -17.8876 13.2058 -19.7142
ltibia 45.7333
lfoot -10.8787 0.72636
ltoes -17.2019
17
root 19.5618 19.2903 0.119078 1067.56 -79.817 -349.479
lowerback 4.91087 3.12827 9.99962
upperback 12.9873 3.37186 0.404265
thorax 12.0672 2.44234 -4.95089
lowerneck 1.63497 -2.81474 5.65197
upperneck 24.647 -3.54764 -6.86671
head 6.99631 -1.98435 -3.42896
rclavicle -1.15295e-014 -4.05521e-014
rhumerus -15.3483 -10.5597 -82.2116
rradius 33.1658
rwrist -4.1063
rhand -16.1556 11.8082
rfingers 7.12502
rthumb 10.0501 -17.9318
lclavicle -1.15295e-014 -4.05521e-014
lhumerus -29.3006 2.87136 85.6611
lradius 27.0797
lwrist -28.1716
lhand -12.5625 -7.68116
lfingers 7.12502
lthumb 13.5148 21.8603
rfemur -14.8372 -14.7309 14.9484
rtibia 31.9718
rfoot -7.57902 15.5388
rtoes -4.31393
lfemur -18.2427 13.4347 -19.7019
ltibia 44.5429
lfoot -11.1195 0.508009
ltoes -16.2074
18
root 19.4975 19.2835 0.120639 1067.62 -80.0603 -349.537
lowerback 5.26372 3.27358 10.0389
upperback 13.1683 3.57681 0.373084
thorax 12.1215 2.55006 -5.0032
lowerneck 1.62118 -2.83623 5.66735
upperneck 24.4709 -3.56193 -6.89393
head 6.93829 -1.98772 -3.43482
rclavicle -5.20816e-014 1.82882e-014
rhumerus -14.6767 -10.2381 -82.151
rradius 33.1186
rwrist -4.26597
rhand -16.0498 11.7633
rfingers 7.12502
rthumb 10.1521 -17.9717
lclavicle -5.20816e-014 1.82882e-014
lhumerus -28.9816 2.86288 85.7229
lradius 27.3179
lwrist -27.9424
lhand -13.0552 -7.92144
lfingers 7.12502
lthumb 13.04 21.651
rfemur -14.7254 -14.7042 15.0083
rtibia 32.116
rfoot -7.78441 15.7531
rtoes -4.10833
lfemur -18.5478 13.6104 -19.642
ltibia 43.3647
lfoot -11.3008 0.222902
ltoes -15.1869
19
root 19.436 19.2791 0.121768 1067.81 -80.2986 -349.734
lowerback 5.64631 3.39736 10.0869
upperback 13.3478 3.75547 0.335965
thorax 12.1544 2.64531 -5.07172
lowerneck 1.6817 -2.83936 5.67519
upperneck 24.2567 -3.55841 -6.87106
head 6.85809 -1.97898 -3.41934
rclavicle -5.56597e-015 1.90833e-014
rhumerus -14.0011 -9.78647 -82.1066
rradius 33.033
rwrist -4.55774
rhand -16.0007 11.7271
rfingers 7.12502
rthumb 10.1995 -18.0057
lclavicle -5.56597e-015 1.90833e-014
lhumerus -28.6785 2.72799 85.8021
lradius 27.5723
lwrist -27.5109
lhand -13.5855 -8.19733
lfingers 7.12502
lthumb 12.5288 21.4071
rfemur -14.5725 -14.6509 15.0945
rtibia 32.1951
rfoot -7.94589 15.9315
rtoes -3.88324
lfemur -18.8272 13.7335 -19.5359
ltibia 42.2217
lfoot -11.3814 -0.0420952
ltoes -14.6352
20
root 19.3756 19.2787 0.12373 1068.06 -80.5821 -350.007
lowerback 6.03737 3.52644 10.128
upperback 13.5618 3.93411 0.318783
thorax 12.2236 2.73942 -5.11471
lowerneck 1.68428 -2.83925 5.64849
upperneck 24.0492 -3.54758 -6.86305
head 6.79085 -1.97112 -3.40416
rclavicle -3.18055e-015 -9.54166e-015
rhumerus -13.2467 -9.29584 -82.0349
rradius 32.9422
rwrist -4.90861
rhand -15.8816 11.637
rfingers 7.12502
rthumb 10.3144 -18.09
lclavicle -3.18055e-015 -9.54166e-015
lhumerus -28.2864 2.71124 85.9174
lradius 27.8556
lwrist -27.0712
lhand -14.0084 -8.3773
lfingers 7.12502
lthumb 12.121 21.2516
rfemur -14.3778 -14.629 15.1959
rtibia 32.198
rfoot -8.05233 16.1772
rtoes -3.5976
lfemur -19.0873 13.8192 -19.3893
ltibia 41.134
lfoot -11.443 -0.23811
ltoes -14.9333
21
root 19.3179 19.2825 0.126209 1068.09 -80.8458 -350.091
lowerback 6.45935 3.63972 10.1415
upperback 13.7958 4.09328 0.277144
thorax 12.2958 2.82308 -5.17326
lowerneck 1.70022 -2.82906 5.61586
upperneck 23.7836 -3.53035 -6.80602
head 6.70462 -1.95638 -3.3696
rclavicle 3.4191e-014 2.78299e-014
rhumerus -12.46 -8.69618 -81.9752
rradius 32.8237
rwrist -5.29788
rhand -15.8285 11.5999
rfingers 7.12502
rthumb 10.3656 -18.1246
lclavicle 3.4191e-014 2.78299e-014
lhumerus -27.8484 2.5874 86.0413
lradius 28.1743
lwrist -26.4373
lhand -14.3565 -8.53927
lfingers 7.12502
lthumb 11.7853 21.1091
rfemur -14.1235 -14.5726 15.2505
rtibia 32.1407
rfoot -8.14758 16.3677
rtoes -3.32957
lfemur -19.3112 13.8446 -19.2524
ltibia 40.0939
lfoot -11.5256 -0.491433
ltoes -15.5226
